<svg width="201" height="301" viewBox="0 0 201 301" fill="none" xmlns="http://www.w3.org/2000/svg">
<path d="M183.676 0.339844H17.0393C7.82616 0.339844 0.357422 7.8086 0.357422 17.0218V283.937C0.357422 293.15 7.82616 300.618 17.0393 300.618H183.676C192.889 300.618 200.357 293.15 200.357 283.937V17.0218C200.357 7.8086 192.889 0.339844 183.676 0.339844Z" fill="white" stroke="black" stroke-width="0.559443"/>
<path d="M55.7894 27.9218C53.5616 27.8761 52.0752 28.6644 50.59 30.1502C49.1042 31.636 48.3616 33.1212 48.3616 35.3497C48.3616 37.5781 49.2073 38.8995 50.59 40.5491C51.9131 42.1274 52.8184 42.7775 53.561 44.2628C54.3036 45.7486 55.0468 48.7196 55.0468 50.2048V52.4332H53.561C52.0752 52.4332 49.1042 50.9474 48.3616 50.2048L46.1332 47.9764C44.6474 46.4906 43.1621 45.748 40.9337 45.748C38.7053 45.748 37.2195 46.4906 35.7343 47.9764C34.2485 49.4622 33.5059 50.9474 33.5059 53.1758C33.5059 55.4042 34.2485 56.8895 35.7343 58.3753C37.2201 59.8611 38.7053 60.6037 40.9337 60.6037C43.1621 60.6037 44.6479 59.8611 46.1332 58.3753L48.3616 56.1469C49.1042 55.4043 52.0758 53.9185 53.561 53.9185H55.0468C55.01 56.0221 54.854 59.6956 54.3042 61.3463C53.5616 63.5747 52.0758 65.8032 50.59 67.2884C49.1042 68.7742 44.6474 71.7452 44.6474 71.7452V72.4878C44.6474 72.4878 52.0752 71.002 53.561 71.002H58.0178C59.5036 71.002 66.9315 72.4878 66.9315 72.4878V71.7452C66.9315 71.7452 62.4747 68.7742 60.9889 67.2884C59.5031 65.8026 58.0178 63.5747 57.2747 61.3463C56.7242 59.6956 56.5688 56.0221 56.532 53.9185H58.0195C59.5053 53.9185 62.4763 55.4043 63.219 56.1469L65.4474 58.3753C66.9332 59.8611 68.4184 60.6037 70.6468 60.6037C72.8752 60.6037 74.361 59.8611 75.8463 58.3753C77.332 56.8895 78.0747 55.4042 78.0747 53.1758C78.0747 50.9474 77.332 49.4622 75.8463 47.9764C74.3605 46.4906 72.8752 45.748 70.6468 45.748C68.4184 45.748 66.9326 46.4906 65.4474 47.9764L63.219 50.2048C62.4763 50.9474 59.5047 52.4332 58.0195 52.4332H56.5337V50.2048C56.5337 48.719 57.2763 45.748 58.0195 44.2628C58.7621 42.777 59.5053 42.0343 60.9905 40.5491C62.4685 39.0711 63.219 37.5781 63.219 35.3497C63.219 33.1212 62.4763 31.636 60.9905 30.1502C59.5047 28.6644 58.0195 27.9218 55.7911 27.9218" fill="black"/>
<path d="M144.926 27.9218C142.698 27.8761 141.212 28.6644 139.726 30.1502C138.241 31.636 137.498 33.1212 137.498 35.3497C137.498 37.5781 138.344 38.8995 139.726 40.5491C141.05 42.1274 141.955 42.7775 142.697 44.2628C143.44 45.7486 144.183 48.7196 144.183 50.2048V52.4332H142.696C141.21 52.4332 138.239 50.9474 137.496 50.2048L135.268 47.9764C133.782 46.4906 132.297 45.748 130.068 45.748C127.84 45.748 126.354 46.4906 124.869 47.9764C123.383 49.4622 122.641 50.9474 122.641 53.1758C122.641 55.4042 123.383 56.8895 124.869 58.3753C126.355 59.8611 127.84 60.6037 130.068 60.6037C132.297 60.6037 133.783 59.8611 135.268 58.3753L137.496 56.1469C138.239 55.4043 141.211 53.9185 142.696 53.9185H144.182C144.145 56.0221 143.989 59.6956 143.439 61.3463C142.696 63.5747 141.211 65.8032 139.725 67.2884C138.239 68.7742 133.782 71.7452 133.782 71.7452V72.4878C133.782 72.4878 141.21 71.002 142.696 71.002H147.153C148.638 71.002 156.066 72.4878 156.066 72.4878V71.7452C156.066 71.7452 151.609 68.7742 150.124 67.2884C148.638 65.8026 147.153 63.5747 146.409 61.3463C145.859 59.6956 145.704 56.0221 145.667 53.9185H147.154C148.64 53.9185 151.611 55.4043 152.354 56.1469L154.582 58.3753C156.068 59.8611 157.553 60.6037 159.782 60.6037C162.01 60.6037 163.496 59.8611 164.981 58.3753C166.467 56.8895 167.209 55.4042 167.209 53.1758C167.209 50.9474 166.467 49.4622 164.981 47.9764C163.495 46.4906 162.01 45.748 159.782 45.748C157.553 45.748 156.067 46.4906 154.582 47.9764L152.354 50.2048C151.611 50.9474 148.64 52.4332 147.154 52.4332H145.668V50.2048C145.668 48.719 146.411 45.748 147.154 44.2628C147.897 42.777 148.64 42.0343 150.125 40.5491C151.603 39.0711 152.354 37.5781 152.354 35.3497C152.354 33.1212 151.611 31.636 150.125 30.1502C148.64 28.6644 147.154 27.9218 144.926 27.9218Z" fill="black"/>
<path d="M55.7894 128.201C53.5616 128.155 52.0752 128.944 50.59 130.43C49.1042 131.915 48.3616 133.401 48.3616 135.629C48.3616 137.857 49.2073 139.179 50.59 140.828C51.9131 142.407 52.8184 143.057 53.561 144.542C54.3036 146.028 55.0468 148.999 55.0468 150.484V152.713H53.561C52.0752 152.713 49.1042 151.227 48.3616 150.484L46.1332 148.256C44.6474 146.77 43.1621 146.027 40.9337 146.027C38.7053 146.027 37.2195 146.77 35.7343 148.256C34.2485 149.741 33.5059 151.227 33.5059 153.455C33.5059 155.684 34.2485 157.169 35.7343 158.655C37.2201 160.14 38.7053 160.883 40.9337 160.883C43.1621 160.883 44.6479 160.14 46.1332 158.655L48.3616 156.426C49.1042 155.684 52.0758 154.198 53.561 154.198H55.0468C55.01 156.301 54.854 159.975 54.3042 161.626C53.5616 163.854 52.0758 166.082 50.59 167.568C49.1042 169.053 44.6474 172.025 44.6474 172.025V172.767C44.6474 172.767 52.0752 171.281 53.561 171.281H58.0178C59.5036 171.281 66.9315 172.767 66.9315 172.767V172.025C66.9315 172.025 62.4747 169.053 60.9889 167.568C59.5031 166.082 58.0178 163.854 57.2747 161.626C56.7242 159.975 56.5688 156.301 56.532 154.198H58.0195C59.5053 154.198 62.4763 155.684 63.219 156.426L65.4474 158.655C66.9332 160.14 68.4184 160.883 70.6468 160.883C72.8752 160.883 74.361 160.14 75.8463 158.655C77.332 157.169 78.0747 155.684 78.0747 153.455C78.0747 151.227 77.332 149.741 75.8463 148.256C74.3605 146.77 72.8752 146.027 70.6468 146.027C68.4184 146.027 66.9326 146.77 65.4474 148.256L63.219 150.484C62.4763 151.227 59.5047 152.713 58.0195 152.713H56.5337V150.484C56.5337 148.998 57.2763 146.027 58.0195 144.542C58.7621 143.056 59.5053 142.314 60.9905 140.828C62.4685 139.35 63.219 137.857 63.219 135.629C63.219 133.401 62.4763 131.915 60.9905 130.43C59.5047 128.944 58.0195 128.201 55.7911 128.201" fill="black"/>
<path d="M144.926 128.201C142.698 128.155 141.212 128.944 139.726 130.43C138.241 131.915 137.498 133.401 137.498 135.629C137.498 137.857 138.344 139.179 139.726 140.828C141.05 142.407 141.955 143.057 142.697 144.542C143.44 146.028 144.183 148.999 144.183 150.484V152.713H142.696C141.21 152.713 138.239 151.227 137.496 150.484L135.268 148.256C133.782 146.77 132.297 146.027 130.068 146.027C127.84 146.027 126.354 146.77 124.869 148.256C123.383 149.741 122.641 151.227 122.641 153.455C122.641 155.684 123.383 157.169 124.869 158.655C126.355 160.14 127.84 160.883 130.068 160.883C132.297 160.883 133.783 160.14 135.268 158.655L137.496 156.426C138.239 155.684 141.211 154.198 142.696 154.198H144.182C144.145 156.301 143.989 159.975 143.439 161.626C142.696 163.854 141.211 166.082 139.725 167.568C138.239 169.053 133.782 172.025 133.782 172.025V172.767C133.782 172.767 141.21 171.281 142.696 171.281H147.153C148.638 171.281 156.066 172.767 156.066 172.767V172.025C156.066 172.025 151.609 169.053 150.124 167.568C148.638 166.082 147.153 163.854 146.409 161.626C145.859 159.975 145.704 156.301 145.667 154.198H147.154C148.64 154.198 151.611 155.684 152.354 156.426L154.582 158.655C156.068 160.14 157.553 160.883 159.782 160.883C162.01 160.883 163.496 160.14 164.981 158.655C166.467 157.169 167.209 155.684 167.209 153.455C167.209 151.227 166.467 149.741 164.981 148.256C163.495 146.77 162.01 146.027 159.782 146.027C157.553 146.027 156.067 146.77 154.582 148.256L152.354 150.484C151.611 151.227 148.64 152.713 147.154 152.713H145.668V150.484C145.668 148.998 146.411 146.027 147.154 144.542C147.897 143.056 148.64 142.314 150.125 140.828C151.603 139.35 152.354 137.857 152.354 135.629C152.354 133.401 151.611 131.915 150.125 130.43C148.64 128.944 147.154 128.201 144.926 128.201Z" fill="black"/>
<path d="M144.926 273.064C147.154 273.109 148.64 272.321 150.126 270.836C151.611 269.35 152.354 267.865 152.354 265.636C152.354 263.408 151.508 262.086 150.126 260.437C148.802 258.859 147.897 258.208 147.155 256.723C146.412 255.237 145.669 252.266 145.669 250.781V248.553H147.156C148.642 248.553 151.613 250.038 152.356 250.781L154.584 253.009C156.07 254.495 157.555 255.238 159.784 255.238C162.012 255.238 163.498 254.495 164.983 253.009C166.469 251.524 167.211 250.038 167.211 247.81C167.211 245.582 166.469 244.096 164.983 242.611C163.497 241.125 162.012 240.382 159.784 240.382C157.555 240.382 156.069 241.125 154.584 242.611L152.356 244.839C151.613 245.582 148.641 247.067 147.156 247.067H145.67C145.707 244.964 145.863 241.29 146.413 239.64C147.156 237.411 148.641 235.183 150.127 233.697C151.613 232.212 156.07 229.241 156.07 229.241V228.498C156.07 228.498 148.642 229.984 147.156 229.984H142.699C141.214 229.984 133.786 228.498 133.786 228.498V229.241C133.786 229.241 138.243 232.212 139.728 233.697C141.214 235.183 142.699 237.411 143.443 239.64C143.993 241.29 144.148 244.964 144.185 247.067H142.698C141.212 247.067 138.241 245.582 137.498 244.839L135.27 242.611C133.784 241.125 132.299 240.382 130.07 240.382C127.842 240.382 126.356 241.125 124.871 242.611C123.385 244.096 122.643 245.582 122.643 247.81C122.643 250.038 123.385 251.524 124.871 253.009C126.357 254.495 127.842 255.238 130.07 255.238C132.299 255.238 133.785 254.495 135.27 253.009L137.498 250.781C138.241 250.038 141.212 248.553 142.698 248.553H144.184V250.781C144.184 252.267 143.441 255.238 142.698 256.723C141.955 258.209 141.212 258.952 139.727 260.437C138.249 261.915 137.498 263.408 137.498 265.636C137.498 267.865 138.241 269.35 139.727 270.836C141.212 272.321 142.698 273.064 144.926 273.064Z" fill="black"/>
<path d="M55.7897 273.064C58.0176 273.109 59.5039 272.321 60.9892 270.836C62.4749 269.35 63.2176 267.865 63.2176 265.636C63.2176 263.408 62.3719 262.086 60.9892 260.437C59.666 258.859 58.7607 258.208 58.0181 256.723C57.2755 255.237 56.5323 252.266 56.5323 250.781V248.553H58.0198C59.5056 248.553 62.4766 250.038 63.2192 250.781L65.4476 253.009C66.9334 254.495 68.4187 255.238 70.6471 255.238C72.8755 255.238 74.3613 254.495 75.8465 253.009C77.3323 251.524 78.0749 250.038 78.0749 247.81C78.0749 245.582 77.3323 244.096 75.8465 242.611C74.3607 241.125 72.8755 240.382 70.6471 240.382C68.4187 240.382 66.9329 241.125 65.4476 242.611L63.2192 244.839C62.4766 245.582 59.505 247.067 58.0198 247.067H56.534C56.5708 244.964 56.7268 241.29 57.2766 239.64C58.0192 237.411 59.505 235.183 60.9908 233.697C62.4766 232.212 66.9334 229.241 66.9334 229.241V228.498C66.9334 228.498 59.5056 229.984 58.0198 229.984H53.563C52.0772 229.984 44.6493 228.498 44.6493 228.498V229.241C44.6493 229.241 49.1061 232.212 50.5919 233.697C52.0777 235.183 53.563 237.411 54.3061 239.64C54.8566 241.29 55.012 244.964 55.0488 247.067H53.563C52.0772 247.067 49.1061 245.582 48.3635 244.839L46.1351 242.611C44.6493 241.125 43.1641 240.382 40.9357 240.382C38.7073 240.382 37.2215 241.125 35.7362 242.611C34.2504 244.096 33.5078 245.582 33.5078 247.81C33.5078 250.038 34.2504 251.524 35.7362 253.009C37.222 254.495 38.7073 255.238 40.9357 255.238C43.1641 255.238 44.6499 254.495 46.1351 253.009L48.3635 250.781C49.1061 250.038 52.0777 248.553 53.563 248.553H55.0488V250.781C55.0488 252.267 54.3061 255.238 53.563 256.723C52.8203 258.209 52.0772 258.952 50.5919 260.437C49.1139 261.915 48.3635 263.408 48.3635 265.636C48.3635 267.865 49.1061 269.35 50.5919 270.836C52.0777 272.321 53.563 273.064 55.7914 273.064" fill="black"/>
<path d="M16.7937 14.2676C13.6943 14.2676 11.1992 16.7627 11.1992 19.862V36.6453C11.1992 39.7446 13.6943 42.2397 16.7937 42.2397C19.893 42.2397 22.3881 39.7446 22.3881 36.6453V31.0509C22.3881 27.9516 19.893 25.4564 16.7937 25.4564C15.7738 25.4564 14.8177 25.7356 13.9964 26.2083V19.8643C13.9964 18.3146 15.244 17.067 16.7937 17.067C18.3433 17.067 19.5909 18.3146 19.5909 19.8643V20.4237H22.3881V19.8643C22.3881 16.7649 19.893 14.2698 16.7937 14.2698M16.7937 28.2559C18.3433 28.2559 19.5909 29.5035 19.5909 31.0531V36.6476C19.5909 38.1972 18.3433 39.4448 16.7937 39.4448C15.244 39.4448 13.9964 38.1972 13.9964 36.6476V31.0531C13.9964 29.5035 15.244 28.2559 16.7937 28.2559Z" fill="black"/>
<path d="M16.794 47.8347C15.9548 47.8174 15.3954 48.1144 14.8359 48.6739C14.2765 49.2333 13.9968 49.7928 13.9968 50.6319C13.9968 51.4711 14.3151 51.969 14.8359 52.59C15.3344 53.1847 15.6751 53.4291 15.9548 53.9886C16.2345 54.548 16.5143 55.6669 16.5143 56.2264V57.0655H15.9548C15.3954 57.0655 14.2765 56.5061 13.9968 56.2264L13.1576 55.3872C12.5982 54.8277 12.0387 54.548 11.1996 54.548C10.3604 54.548 9.80095 54.8277 9.24151 55.3872C8.68207 55.9466 8.40234 56.5061 8.40234 57.3452C8.40234 58.1844 8.68207 58.7438 9.24151 59.3033C9.80095 59.8627 10.3604 60.1425 11.1996 60.1425C12.0387 60.1425 12.5982 59.8627 13.1576 59.3033L13.9968 58.4641C14.2765 58.1844 15.3954 57.625 15.9548 57.625H16.5143C16.5003 58.4171 16.4415 59.8006 16.2345 60.4222C15.9548 61.2613 15.3954 62.1005 14.8359 62.6599C14.2765 63.2194 12.5982 64.3383 12.5982 64.3383V64.618C12.5982 64.618 15.3954 64.0586 15.9548 64.0586H17.6332C18.1926 64.0586 20.9898 64.618 20.9898 64.618V64.3383C20.9898 64.3383 19.3115 63.2194 18.752 62.6599C18.1926 62.1005 17.6332 61.2613 17.3534 60.4222C17.1464 59.8006 17.0877 58.4171 17.0737 57.625H17.6332C18.1926 57.625 19.3115 58.1844 19.5912 58.4641L20.4304 59.3033C20.9898 59.8627 21.5493 60.1425 22.3884 60.1425C23.2276 60.1425 23.787 59.8627 24.3465 59.3033C24.9059 58.7438 25.1856 58.1844 25.1856 57.3452C25.1856 56.5061 24.9059 55.9466 24.3465 55.3872C23.787 54.8277 23.2276 54.548 22.3884 54.548C21.5493 54.548 20.9898 54.8277 20.4304 55.3872L19.5912 56.2264C19.3115 56.5061 18.1926 57.0655 17.6332 57.0655H17.0737V56.2264C17.0737 55.6669 17.3534 54.548 17.6332 53.9886C17.9129 53.4291 18.1926 53.1494 18.752 52.59C19.3087 52.0333 19.5912 51.4711 19.5912 50.6319C19.5912 49.7928 19.3115 49.2333 18.752 48.6739C18.1926 48.1144 17.6332 47.8347 16.794 47.8347Z" fill="black"/>
<path d="M183.923 250.826C184.762 250.844 185.322 250.547 185.881 249.987C186.44 249.428 186.72 248.868 186.72 248.029C186.72 247.19 186.402 246.692 185.881 246.071C185.382 245.476 185.042 245.232 184.762 244.672C184.482 244.113 184.203 242.994 184.203 242.435V241.595H184.762C185.322 241.595 186.44 242.155 186.72 242.435L187.559 243.274C188.119 243.833 188.678 244.113 189.517 244.113C190.356 244.113 190.916 243.833 191.475 243.274C192.035 242.714 192.315 242.155 192.315 241.316C192.315 240.477 192.035 239.917 191.475 239.358C190.916 238.798 190.356 238.519 189.517 238.519C188.678 238.519 188.119 238.798 187.559 239.358L186.72 240.197C186.44 240.477 185.322 241.036 184.762 241.036H184.203C184.217 240.244 184.275 238.86 184.482 238.239C184.762 237.4 185.322 236.56 185.881 236.001C186.44 235.442 188.119 234.323 188.119 234.323V234.043C188.119 234.043 185.322 234.602 184.762 234.602H183.084C182.524 234.602 179.727 234.043 179.727 234.043V234.323C179.727 234.323 181.405 235.442 181.965 236.001C182.524 236.56 183.084 237.4 183.363 238.239C183.57 238.86 183.629 240.244 183.643 241.036H183.084C182.524 241.036 181.405 240.477 181.126 240.197L180.287 239.358C179.727 238.798 179.168 238.519 178.328 238.519C177.489 238.519 176.93 238.798 176.37 239.358C175.811 239.917 175.531 240.477 175.531 241.316C175.531 242.155 175.811 242.714 176.37 243.274C176.93 243.833 177.489 244.113 178.328 244.113C179.168 244.113 179.727 243.833 180.287 243.274L181.126 242.435C181.405 242.155 182.524 241.595 183.084 241.595H183.643V242.435C183.643 242.994 183.363 244.113 183.084 244.672C182.804 245.232 182.524 245.512 181.965 246.071C181.408 246.628 181.126 247.19 181.126 248.029C181.126 248.868 181.405 249.428 181.965 249.987C182.524 250.547 183.084 250.826 183.923 250.826Z" fill="black"/>
<path d="M183.923 283.275C187.022 283.275 189.518 280.78 189.518 277.681V260.898C189.518 257.798 187.022 255.303 183.923 255.303C180.824 255.303 178.329 257.798 178.329 260.898V266.492C178.329 269.591 180.824 272.087 183.923 272.087C184.943 272.087 185.899 271.807 186.72 271.335V277.679C186.72 279.228 185.473 280.476 183.923 280.476C182.373 280.476 181.126 279.228 181.126 277.679V277.119H178.329V277.679C178.329 280.778 180.824 283.273 183.923 283.273M183.923 269.287C182.373 269.287 181.126 268.039 181.126 266.49V260.895C181.126 259.346 182.373 258.098 183.923 258.098C185.473 258.098 186.72 259.346 186.72 260.895V266.49C186.72 268.039 185.473 269.287 183.923 269.287Z" fill="black"/>
</svg>
