<svg width="201" height="302" viewBox="0 0 201 302" fill="none" xmlns="http://www.w3.org/2000/svg">
<path d="M183.877 0.625H17.2405C8.02733 0.625 0.558594 8.09376 0.558594 17.3069V284.222C0.558594 293.435 8.02733 300.904 17.2405 300.904H183.877C193.09 300.904 200.559 293.435 200.559 284.222V17.3069C200.559 8.09376 193.09 0.625 183.877 0.625Z" fill="white" stroke="black" stroke-width="0.559443"/>
<path d="M100.28 30.7089C98.0518 30.6632 96.5655 31.4515 95.0802 32.9373C93.5944 34.4231 92.8518 35.9084 92.8518 38.1368C92.8518 40.3652 93.6975 41.6866 95.0802 43.3362C96.4033 44.9145 97.3086 45.5646 98.0512 47.0499C98.7939 48.5357 99.537 51.5067 99.537 52.9919V55.2203H98.0512C96.5655 55.2203 93.5944 53.7345 92.8518 52.9919L90.6234 50.7635C89.1376 49.2777 87.6524 48.5351 85.4239 48.5351C83.1955 48.5351 81.7097 49.2777 80.2245 50.7635C78.7387 52.2493 77.9961 53.7345 77.9961 55.9629C77.9961 58.1914 78.7387 59.6766 80.2245 61.1624C81.7103 62.6482 83.1955 63.3908 85.4239 63.3908C87.6524 63.3908 89.1382 62.6482 90.6234 61.1624L92.8518 58.934C93.5944 58.1914 96.566 56.7056 98.0512 56.7056H99.537C99.5003 58.8092 99.3443 62.4827 98.7944 64.1334C98.0518 66.3618 96.566 68.5903 95.0802 70.0755C93.5944 71.5613 89.1376 74.5323 89.1376 74.5323V75.2749C89.1376 75.2749 96.5655 73.7891 98.0512 73.7891H102.508C103.994 73.7891 111.422 75.2749 111.422 75.2749V74.5323C111.422 74.5323 106.965 71.5613 105.479 70.0755C103.993 68.5897 102.508 66.3618 101.765 64.1334C101.214 62.4827 101.059 58.8092 101.022 56.7056H102.51C103.996 56.7056 106.967 58.1914 107.709 58.934L109.938 61.1624C111.423 62.6482 112.909 63.3908 115.137 63.3908C117.365 63.3908 118.851 62.6482 120.336 61.1624C121.822 59.6766 122.565 58.1914 122.565 55.9629C122.565 53.7345 121.822 52.2493 120.336 50.7635C118.851 49.2777 117.365 48.5351 115.137 48.5351C112.909 48.5351 111.423 49.2777 109.938 50.7635L107.709 52.9919C106.967 53.7345 103.995 55.2203 102.51 55.2203H101.024V52.9919C101.024 51.5061 101.767 48.5351 102.51 47.0499C103.252 45.5641 103.996 44.8215 105.481 43.3362C106.959 41.8582 107.709 40.3652 107.709 38.1368C107.709 35.9084 106.967 34.4231 105.481 32.9373C103.995 31.4515 102.51 30.7089 100.281 30.7089" fill="black"/>
<path d="M100.28 128.76C98.0518 128.714 96.5655 129.502 95.0802 130.988C93.5944 132.474 92.8518 133.959 92.8518 136.188C92.8518 138.416 93.6975 139.737 95.0802 141.387C96.4033 142.965 97.3086 143.615 98.0512 145.101C98.7939 146.586 99.537 149.557 99.537 151.043V153.271H98.0512C96.5655 153.271 93.5944 151.785 92.8518 151.043L90.6234 148.814C89.1376 147.328 87.6524 146.586 85.4239 146.586C83.1955 146.586 81.7097 147.328 80.2245 148.814C78.7387 150.3 77.9961 151.785 77.9961 154.014C77.9961 156.242 78.7387 157.727 80.2245 159.213C81.7103 160.699 83.1955 161.442 85.4239 161.442C87.6524 161.442 89.1382 160.699 90.6234 159.213L92.8518 156.985C93.5944 156.242 96.566 154.756 98.0512 154.756H99.537C99.5003 156.86 99.3443 160.534 98.7944 162.184C98.0518 164.413 96.566 166.641 95.0802 168.126C93.5944 169.612 89.1376 172.583 89.1376 172.583V173.326C89.1376 173.326 96.5655 171.84 98.0512 171.84H102.508C103.994 171.84 111.422 173.326 111.422 173.326V172.583C111.422 172.583 106.965 169.612 105.479 168.126C103.993 166.64 102.508 164.413 101.765 162.184C101.214 160.534 101.059 156.86 101.022 154.756H102.51C103.996 154.756 106.967 156.242 107.709 156.985L109.938 159.213C111.423 160.699 112.909 161.442 115.137 161.442C117.365 161.442 118.851 160.699 120.336 159.213C121.822 157.727 122.565 156.242 122.565 154.014C122.565 151.785 121.822 150.3 120.336 148.814C118.851 147.328 117.365 146.586 115.137 146.586C112.909 146.586 111.423 147.328 109.938 148.814L107.709 151.043C106.967 151.785 103.995 153.271 102.51 153.271H101.024V151.043C101.024 149.557 101.767 146.586 102.51 145.101C103.252 143.615 103.996 142.872 105.481 141.387C106.959 139.909 107.709 138.416 107.709 136.188C107.709 133.959 106.967 132.474 105.481 130.988C103.995 129.502 102.51 128.76 100.281 128.76" fill="black"/>
<path d="M103.621 226.254C101.394 226.208 99.9073 226.996 98.422 228.482C96.9362 229.968 96.1936 231.453 96.1936 233.682C96.1936 235.91 97.0393 237.232 98.422 238.881C99.7451 240.459 100.65 241.11 101.393 242.595C102.136 244.081 102.879 247.052 102.879 248.537V250.765H101.393C99.9073 250.765 96.9362 249.279 96.1936 248.537L93.9652 246.308C92.4794 244.823 90.9942 244.08 88.7657 244.08C86.5373 244.08 85.0515 244.823 83.5663 246.308C82.0805 247.794 81.3379 249.279 81.3379 251.508C81.3379 253.736 82.0805 255.222 83.5663 256.707C85.0521 258.193 86.5373 258.936 88.7657 258.936C90.9942 258.936 92.48 258.193 93.9652 256.707L96.1936 254.479C96.9362 253.736 99.9078 252.25 101.393 252.25H102.879C102.842 254.354 102.686 258.028 102.136 259.678C101.394 261.907 99.9078 264.135 98.422 265.62C96.9362 267.106 92.4794 270.077 92.4794 270.077V270.82C92.4794 270.82 99.9073 269.334 101.393 269.334H105.85C107.336 269.334 114.764 270.82 114.764 270.82V270.077C114.764 270.077 110.307 267.106 108.821 265.62C107.335 264.135 105.85 261.907 105.107 259.678C104.556 258.028 104.401 254.354 104.364 252.25H105.852C107.337 252.25 110.308 253.736 111.051 254.479L113.279 256.707C114.765 258.193 116.25 258.936 118.479 258.936C120.707 258.936 122.193 258.193 123.678 256.707C125.164 255.222 125.907 253.736 125.907 251.508C125.907 249.279 125.164 247.794 123.678 246.308C122.192 244.823 120.707 244.08 118.479 244.08C116.25 244.08 114.765 244.823 113.279 246.308L111.051 248.537C110.308 249.279 107.337 250.765 105.852 250.765H104.366V248.537C104.366 247.051 105.108 244.08 105.852 242.595C106.594 241.109 107.337 240.366 108.823 238.881C110.301 237.403 111.051 235.91 111.051 233.682C111.051 231.453 110.308 229.968 108.823 228.482C107.337 226.996 105.852 226.254 103.623 226.254" fill="black"/>
<path d="M16.9929 16.7812C13.8936 16.7812 11.3984 19.2764 11.3984 22.3757V25.1729H14.1957V22.3757C14.1957 20.826 15.4432 19.5785 16.9929 19.5785C18.5425 19.5785 19.7901 20.826 19.7901 22.3757V25.1729C19.7901 26.7226 18.5425 27.9701 16.9929 27.9701H14.1957V30.7673H16.9929C18.5425 30.7673 19.7901 32.0149 19.7901 33.5645V39.159C19.7901 40.7086 18.5425 41.9562 16.9929 41.9562C15.4432 41.9562 14.1957 40.7086 14.1957 39.159V36.3618H11.3984V39.159C11.3984 42.2583 13.8936 44.7534 16.9929 44.7534C20.0922 44.7534 22.5873 42.2583 22.5873 39.159V33.5645C22.5873 31.8862 21.8472 30.3925 20.6818 29.3687C21.8472 28.3449 22.5873 26.8535 22.5873 25.1729V22.3757C22.5873 19.2764 20.0922 16.7812 16.9929 16.7812Z" fill="black"/>
<path d="M16.9932 50.3484C16.154 50.331 15.5946 50.6281 15.0352 51.1875C14.4757 51.747 14.196 52.3064 14.196 53.1456C14.196 53.9848 14.5143 54.4827 15.0352 55.1036C15.5336 55.6983 15.8743 55.9428 16.154 56.5023C16.4338 57.0617 16.7135 58.1806 16.7135 58.74V59.5792H16.154C15.5946 59.5792 14.4757 59.0197 14.196 58.74L13.3568 57.9009C12.7974 57.3414 12.2379 57.0617 11.3988 57.0617C10.5596 57.0617 10.0002 57.3414 9.44073 57.9009C8.88128 58.4603 8.60156 59.0197 8.60156 59.8589C8.60156 60.6981 8.88128 61.2575 9.44073 61.817C10.0002 62.3764 10.5596 62.6561 11.3988 62.6561C12.2379 62.6561 12.7974 62.3764 13.3568 61.817L14.196 60.9778C14.4757 60.6981 15.5946 60.1386 16.154 60.1386H16.7135C16.6995 60.9308 16.6408 62.3143 16.4338 62.9358C16.154 63.775 15.5946 64.6142 15.0352 65.1736C14.4757 65.7331 12.7974 66.8519 12.7974 66.8519V67.1317C12.7974 67.1317 15.5946 66.5722 16.154 66.5722H17.8324C18.3918 66.5722 21.189 67.1317 21.189 67.1317V66.8519C21.189 66.8519 19.5107 65.7331 18.9513 65.1736C18.3918 64.6142 17.8324 63.775 17.5527 62.9358C17.3457 62.3143 17.2869 60.9308 17.2729 60.1386H17.8324C18.3918 60.1386 19.5107 60.6981 19.7904 60.9778L20.6296 61.817C21.189 62.3764 21.7485 62.6561 22.5876 62.6561C23.4268 62.6561 23.9863 62.3764 24.5457 61.817C25.1051 61.2575 25.3849 60.6981 25.3849 59.8589C25.3849 59.0197 25.1051 58.4603 24.5457 57.9009C23.9863 57.3414 23.4268 57.0617 22.5876 57.0617C21.7485 57.0617 21.189 57.3414 20.6296 57.9009L19.7904 58.74C19.5107 59.0197 18.3918 59.5792 17.8324 59.5792H17.2729V58.74C17.2729 58.1806 17.5527 57.0617 17.8324 56.5023C18.1121 55.9428 18.3918 55.6631 18.9513 55.1036C19.5079 54.547 19.7904 53.9848 19.7904 53.1456C19.7904 52.3064 19.5107 51.747 18.9513 51.1875C18.3918 50.6281 17.8324 50.3484 16.9932 50.3484Z" fill="black"/>
<path d="M184.122 251.105C184.961 251.12 185.521 250.856 186.08 250.359C186.64 249.862 186.919 249.364 186.919 248.619C186.919 247.873 186.601 247.43 186.08 246.878C185.582 246.35 185.241 246.132 184.961 245.635C184.682 245.138 184.402 244.143 184.402 243.646V242.9H184.961C185.521 242.9 186.64 243.397 186.919 243.646L187.758 244.391C188.318 244.889 188.877 245.137 189.717 245.137C190.556 245.137 191.115 244.888 191.675 244.391C192.234 243.894 192.514 243.397 192.514 242.651C192.514 241.905 192.234 241.408 191.675 240.911C191.115 240.413 190.556 240.165 189.717 240.165C188.877 240.165 188.318 240.413 187.758 240.911L186.919 241.656C186.64 241.905 185.521 242.402 184.961 242.402H184.402C184.416 241.698 184.475 240.468 184.682 239.915C184.961 239.17 185.521 238.423 186.08 237.926C186.64 237.429 188.318 236.434 188.318 236.434V236.186C188.318 236.186 185.521 236.683 184.961 236.683H183.283C182.724 236.683 179.926 236.186 179.926 236.186V236.434C179.926 236.434 181.605 237.429 182.164 237.926C182.724 238.423 183.283 239.169 183.563 239.915C183.77 240.468 183.828 241.698 183.842 242.402H183.283C182.724 242.402 181.605 241.905 181.325 241.656L180.486 240.911C179.926 240.413 179.367 240.165 178.528 240.165C177.689 240.165 177.129 240.413 176.57 240.911C176.01 241.408 175.73 241.905 175.73 242.651C175.73 243.397 176.01 243.894 176.57 244.391C177.129 244.889 177.689 245.137 178.528 245.137C179.367 245.137 179.926 244.888 180.486 244.391L181.325 243.646C181.605 243.397 182.724 242.9 183.283 242.9H183.842V243.646C183.842 244.143 183.563 245.138 183.283 245.635C183.003 246.132 182.724 246.381 182.164 246.878C181.607 247.373 181.325 247.873 181.325 248.619C181.325 249.364 181.605 249.862 182.164 250.359C182.724 250.856 183.283 251.105 184.122 251.105Z" fill="black"/>
<path d="M184.122 284.672C187.222 284.672 189.717 282.177 189.717 279.077V276.28H186.92V279.077C186.92 280.627 185.672 281.875 184.122 281.875C182.573 281.875 181.325 280.627 181.325 279.077V276.28C181.325 274.731 182.573 273.483 184.122 273.483H186.92V270.686H184.122C182.573 270.686 181.325 269.438 181.325 267.889V262.294C181.325 260.744 182.573 259.497 184.122 259.497C185.672 259.497 186.92 260.744 186.92 262.294V265.091H189.717V262.294C189.717 259.195 187.222 256.7 184.122 256.7C181.023 256.7 178.528 259.195 178.528 262.294V267.889C178.528 269.567 179.268 271.061 180.433 272.084C179.268 273.108 178.528 274.6 178.528 276.28V279.077C178.528 282.177 181.023 284.672 184.122 284.672Z" fill="black"/>
</svg>
