<svg width="29" height="45" viewBox="0 0 29 45" fill="none" xmlns="http://www.w3.org/2000/svg">
<rect x="0.5" width="28" height="45" fill="#F7F7F7"/>
<path fill-rule="evenodd" clip-rule="evenodd" d="M15.0229 12C13.136 12 11.6051 14.133 11.6051 16.7618C11.6051 19.0013 14.7131 22.7693 14.5923 24.5589C13.5944 25.0703 10.5112 20.3515 8.91781 20.3515C7.03097 20.3515 5.5 22.4845 5.5 25.1133C5.5 27.7421 7.03097 29.8751 8.91781 29.8751C10.5542 29.8751 13.3587 25.1602 14.5923 25.5858L12.5197 34L17.4899 33.9727C17.4899 33.9727 15.3125 25.8154 15.3098 25.6226H15.3489V25.6317C16.5571 25.2136 19.4574 29.9664 21.0822 29.9664C22.969 29.9664 24.5 27.8334 24.5 25.2046C24.5 22.5758 22.969 20.4429 21.0822 20.4429C19.4953 20.4429 16.6186 25.0836 15.3555 24.6048C15.3732 22.7713 18.4406 18.9996 18.4406 16.7626C18.4406 14.1338 16.9096 12.0008 15.0228 12.0008L15.0229 12Z" fill="black"/>
</svg>
