<svg width="20" height="22" viewBox="0 0 20 22" fill="none" xmlns="http://www.w3.org/2000/svg">
<path fill-rule="evenodd" clip-rule="evenodd" d="M10.0229 0C8.13602 0 6.60505 2.13295 6.60505 4.76177C6.60505 7.00132 9.71305 10.7693 9.59233 12.5589C8.59443 13.0703 5.51119 8.35154 3.91781 8.35154C2.03097 8.35154 0.5 10.4845 0.5 13.1133C0.5 15.7421 2.03097 17.8751 3.91781 17.8751C5.55421 17.8751 8.35871 13.1602 9.59233 13.5858L7.51974 22L12.4899 21.9727C12.4899 21.9727 10.3125 13.8154 10.3098 13.6226H10.3489V13.6317C11.5571 13.2136 14.4574 17.9664 16.0822 17.9664C17.969 17.9664 19.5 15.8334 19.5 13.2046C19.5 10.5758 17.969 8.44285 16.0822 8.44285C14.4953 8.44285 11.6186 13.0836 10.3555 12.6048C10.3732 10.7713 13.4406 6.99956 13.4406 4.76256C13.4406 2.13381 11.9096 0.000787735 10.0228 0.000787735L10.0229 0Z" fill="black"/>
</svg>
