<svg width="102" height="48" viewBox="0 0 102 48" fill="none" xmlns="http://www.w3.org/2000/svg">
<g clip-path="url(#clip0_1933_2451)">
<path d="M47.9534 25.012C47.9534 25.012 48.6874 18.024 34.4774 8.398C34.4774 8.398 27.5554 3.862 24.3714 0.246C24.2494 0.12 24.1874 0 24.0054 0C23.8214 0 23.7614 0.12 23.6374 0.246C20.4514 3.862 13.5314 8.398 13.5314 8.398C-0.678606 18.022 0.0553941 25.012 0.0553941 25.012C-0.556606 31.02 3.97539 36.844 10.0394 36.844C14.8794 36.844 18.3694 34.086 19.6534 32.86L20.2054 32.31C20.4494 32.002 20.7554 31.694 20.8174 31.574L21.0014 31.82C21.1234 32.066 21.2454 32.31 21.2454 32.556C21.8574 37.582 15.6114 43.896 13.7734 45.614C13.7734 45.614 13.2834 46.166 13.2834 46.904V48H34.6614V46.896C34.6614 46.16 34.1714 45.606 34.1714 45.606C32.3334 43.892 26.0854 37.576 26.6974 32.55C26.7594 32.304 26.8214 31.998 26.9414 31.814L27.1254 31.568C27.1854 31.752 27.4934 32.058 27.7374 32.304L28.2894 32.856C29.5734 34.082 33.0674 36.84 37.9034 36.84C44.0314 36.782 48.5054 31.02 47.9534 25.012Z" fill="black"/>
<path d="M23.9994 0C23.8194 0.002 23.7594 0.122 23.6374 0.246C20.4514 3.862 13.5314 8.398 13.5314 8.398C-0.678606 18.022 0.0553941 25.012 0.0553941 25.012C-0.556606 31.02 3.97539 36.844 10.0394 36.844C14.8794 36.844 18.3694 34.086 19.6534 32.86L20.2054 32.31C20.4494 32.002 20.7554 31.694 20.8174 31.574L21.0014 31.82C21.1234 32.066 21.2454 32.31 21.2454 32.556C21.8574 37.582 15.6114 43.896 13.7734 45.614C13.7734 45.614 13.2834 46.166 13.2834 46.904V48H23.9994V0Z" fill="black"/>
</g>
<g clip-path="url(#clip1_1933_2451)">
<mask id="mask0_1933_2451" style="mask-type:luminance" maskUnits="userSpaceOnUse" x="54" y="0" width="48" height="48">
<path d="M54 0H101.5V47.5H54V0Z" fill="white"/>
</mask>
<g mask="url(#mask0_1933_2451)">
<path d="M87.125 36.25C89.6114 36.25 91.996 35.2623 93.7541 33.5041C95.5123 31.746 96.5 29.3614 96.5 26.875C96.5 24.3886 95.5123 22.004 93.7541 20.2459C91.996 18.4877 89.6114 17.5 87.125 17.5C85.488 17.4996 83.8798 17.9308 82.4625 18.75H82.2013C83.5042 17.979 84.5838 16.882 85.3339 15.5668C86.0839 14.2517 86.4785 12.764 86.4787 11.25C86.4787 8.93483 85.5591 6.71448 83.922 5.0774C82.2849 3.44032 80.0645 2.52062 77.7494 2.52062C75.4342 2.52062 73.2138 3.44032 71.5768 5.0774C69.9397 6.71448 69.02 8.93483 69.02 11.25C69.0202 12.7641 69.415 14.252 70.1652 15.5672C70.9155 16.8823 71.9955 17.9793 73.2988 18.75H73.0387C71.6637 17.9587 70.075 17.5 68.375 17.5C65.8886 17.5 63.504 18.4877 61.7459 20.2459C59.9877 22.004 59 24.3886 59 26.875C59 29.3614 59.9877 31.746 61.7459 33.5041C63.504 35.2623 65.8886 36.25 68.375 36.25C71.0687 36.25 73.4887 35.1075 75.1987 33.29C74.6862 38.4412 69.2562 42.5 64 42.5H64.625C64.1277 42.5 63.6508 42.6975 63.2992 43.0492C62.9475 43.4008 62.75 43.8777 62.75 44.375C62.75 44.8723 62.9475 45.3492 63.2992 45.7008C63.6508 46.0525 64.1277 46.25 64.625 46.25H90.875C91.3723 46.25 91.8492 46.0525 92.2008 45.7008C92.5525 45.3492 92.75 44.8723 92.75 44.375C92.75 43.8777 92.5525 43.4008 92.2008 43.0492C91.8492 42.6975 91.3723 42.5 90.875 42.5H91.5C86.2438 42.5 80.8138 38.44 80.3013 33.2887C81.1751 34.2236 82.2317 34.9688 83.4055 35.4782C84.5794 35.9876 85.8454 36.2503 87.125 36.25Z" fill="black"/>
</g>
</g>
<defs>
<clipPath id="clip0_1933_2451">
<rect width="48" height="48" fill="white"/>
</clipPath>
<clipPath id="clip1_1933_2451">
<rect width="47.5" height="47.5" fill="white" transform="translate(54)"/>
</clipPath>
</defs>
</svg>
